<svg width="170" height="170" viewBox="0 0 170 170" fill="none" xmlns="http://www.w3.org/2000/svg">
<circle cx="85" cy="85" r="85" fill="white"/>
<path d="M65.161 123.533C64.6284 123.536 64.1005 123.434 63.6075 123.233C63.1145 123.032 62.666 122.735 62.2879 122.361L31.7763 91.8745C31.0227 91.1169 30.5996 90.0921 30.5996 89.024C30.5996 87.9558 31.0227 86.931 31.7763 86.1735C32.1525 85.7945 32.6001 85.4937 33.0932 85.2884C33.5863 85.0832 34.1152 84.9775 34.6494 84.9775C35.1836 84.9775 35.7126 85.0832 36.2057 85.2884C36.6988 85.4937 37.1464 85.7945 37.5225 86.1735L65.161 113.789L132.497 46.5091C133.255 45.756 134.281 45.3333 135.35 45.3333C136.419 45.3333 137.444 45.756 138.203 46.5091C138.582 46.8849 138.883 47.3321 139.088 47.8248C139.294 48.3175 139.4 48.846 139.4 49.3798C139.4 49.9135 139.294 50.442 139.088 50.9347C138.883 51.4274 138.582 51.8746 138.203 52.2505L67.9936 122.361C67.2399 123.108 66.2226 123.529 65.161 123.533Z" fill="#2A2A2A"/>
</svg>
